<?xml version="1.0" standalone="no"?>
<!DOCTYPE svg PUBLIC "-//W3C//DTD SVG 20010904//EN"
 "http://www.w3.org/TR/2001/REC-SVG-20010904/DTD/svg10.dtd">
<svg version="1.0" xmlns="http://www.w3.org/2000/svg"
 width="494.000000pt" height="439.000000pt" viewBox="0 0 494.000000 439.000000"
 preserveAspectRatio="xMidYMid meet">

<g transform="translate(0.000000,439.000000) scale(0.100000,-0.100000)"
fill="#ffffff" stroke="none">
<path d="M220 4381 c-77 -16 -158 -83 -193 -161 -21 -45 -21 -52 -21 -2025 0
-2217 -8 -2010 74 -2099 82 -89 60 -86 608 -86 431 0 485 2 517 17 33 16 37
16 70 0 32 -15 86 -17 513 -17 458 0 479 1 522 21 60 27 107 74 136 134 l24
50 1 1570 c0 864 3 1563 6 1555 3 -8 97 -247 208 -530 205 -519 281 -713 360
-915 24 -60 136 -346 250 -635 462 -1177 475 -1209 502 -1230 51 -40 180 -14
218 44 13 19 16 39 12 72 l-5 45 62 31 c85 43 339 134 467 168 l107 28 13 -29
c15 -39 55 -69 89 -69 42 0 116 29 144 57 38 38 35 91 -15 215 -23 57 -101
256 -174 443 -74 187 -206 525 -295 750 -88 226 -233 592 -320 815 -88 223
-235 599 -328 835 -93 237 -209 531 -257 655 -49 124 -95 236 -104 249 -24 38
-72 53 -127 41 -101 -23 -129 -50 -127 -126 1 -54 1 -55 -40 -75 -107 -55
-372 -150 -517 -185 -71 -17 -80 -17 -80 1 0 9 -11 27 -25 41 -21 21 -25 35
-25 82 0 101 -70 206 -165 249 -36 16 -82 18 -496 21 -436 3 -460 2 -517 -17
-57 -20 -61 -20 -93 -3 -31 15 -80 17 -489 19 -250 0 -471 -2 -490 -6z m880
-541 l0 -270 -410 0 -410 0 0 270 0 270 410 0 410 0 0 -270z m1090 0 l0 -270
-405 0 -405 0 0 270 0 270 405 0 405 0 0 -270z m1721 -1534 c363 -907 658
-1651 655 -1653 -2 -2 -53 -17 -112 -33 -132 -34 -247 -75 -402 -140 -64 -27
-117 -48 -118 -47 -3 3 -1315 3291 -1317 3301 -1 4 45 21 103 36 130 35 273
85 410 143 58 25 109 44 113 43 5 -1 305 -743 668 -1650z m-2811 -106 l0
-1090 -410 0 -410 0 0 1090 0 1090 410 0 410 0 0 -1090z m1090 0 l0 -1090
-405 0 -405 0 0 1090 0 1090 405 0 405 0 0 -1090z m-1090 -1645 l0 -265 -410
0 -410 0 0 265 0 265 410 0 410 0 0 -265z m1090 0 l0 -265 -405 0 -405 0 0
265 0 265 405 0 405 0 0 -265z"/>
</g>
</svg>
