<svg xmlns="http://www.w3.org/2000/svg" width="35" height="35" viewBox="0 0 35 35">
    <defs>
        <filter id="fcglfugyoa">
            <feColorMatrix in="SourceGraphic" values="0 0 0 0 0.729412 0 0 0 0 0.678431 0 0 0 0 0.447059 0 0 0 0.500000 0"/>
        </filter>
    </defs>
    <g fill="none" fill-rule="evenodd">
        <g>
            <g filter="url(#fcglfugyoa)" transform="translate(-325 -675) translate(155 240)">
                <g transform="translate(170 435)">
                    <path d="M0 0H35V35H0z"/>
                    <circle cx="17.5" cy="17.5" r="16.5" stroke="#000" stroke-width="2"/>
                    <path fill="#000" d="M22.908 10h-9.816C11.388 10 10 11.387 10 13.092v9.816C10 24.613 11.388 26 13.092 26h9.816C24.612 26 26 24.613 26 22.908v-9.816C26 11.387 24.612 10 22.908 10zm.887 1.845l.354-.002v2.712l-2.704.008-.01-2.712 2.36-.006zm-8.078 4.512c.512-.709 1.343-1.174 2.283-1.174s1.771.465 2.283 1.174c.334.463.534 1.03.534 1.643 0 1.552-1.264 2.816-2.817 2.816-1.552 0-2.816-1.264-2.816-2.816 0-.613.2-1.18.533-1.643zm8.724 6.55c0 .847-.687 1.534-1.533 1.534h-9.816c-.846 0-1.533-.687-1.533-1.533v-6.55h2.39c-.208.507-.323 1.062-.323 1.642 0 2.412 1.962 4.375 4.374 4.375 2.413 0 4.375-1.963 4.375-4.375 0-.58-.117-1.135-.322-1.643h2.388v6.55z"/>
                </g>
            </g>
        </g>
    </g>
</svg>
