<svg xmlns="http://www.w3.org/2000/svg" width="35" height="35" viewBox="0 0 35 35">
    <defs>
        <filter id="at50alrsha">
            <feColorMatrix in="SourceGraphic" values="0 0 0 0 0.729412 0 0 0 0 0.678431 0 0 0 0 0.447059 0 0 0 0.500000 0"/>
        </filter>
    </defs>
    <g fill="none" fill-rule="evenodd">
        <g>
            <g filter="url(#at50alrsha)" transform="translate(-275 -675) translate(155 240)">
                <g transform="translate(120 435)">
                    <path d="M0 0H35V35H0z"/>
                    <circle cx="17.5" cy="17.5" r="16.5" stroke="#000" stroke-width="2"/>
                    <path fill="#000" d="M23.997 13.213c.72-.436 1.274-1.13 1.533-1.954-.675.405-1.42.699-2.215.857C22.68 11.43 21.773 11 20.769 11c-1.925 0-3.486 1.582-3.486 3.534 0 .277.029.547.089.805-2.898-.148-5.467-1.553-7.189-3.693-.3.524-.472 1.13-.472 1.778 0 1.225.616 2.307 1.552 2.942-.572-.018-1.11-.179-1.58-.442v.044c0 1.712 1.2 3.141 2.798 3.465-.293.083-.6.124-.92.124-.224 0-.444-.021-.655-.063.443 1.404 1.731 2.427 3.258 2.454-1.195.949-2.698 1.513-4.332 1.513-.281 0-.56-.015-.832-.048C10.544 24.415 12.377 25 14.346 25c6.416 0 9.923-5.385 9.923-10.056 0-.153-.002-.306-.01-.457.682-.498 1.275-1.121 1.741-1.83-.626.281-1.298.471-2.003.556z"/>
                </g>
            </g>
        </g>
    </g>
</svg>
